HIERARCHY
ROOT hip
{
  OFFSET 0 0 0
  CHANNELS 6 Xposition Yposition Zposition Zrotation Yrotation Xrotation
  JOINT abdomen
  {
    OFFSET 0 20.6881 -0.73152
    CHANNELS 3 Zrotation Xrotation Yrotation
    JOINT chest
    {
      OFFSET 0 11.7043 -0.48768
      CHANNELS 3 Zrotation Xrotation Yrotation
      JOINT neck
      {
        OFFSET 0 22.1894 -2.19456
        CHANNELS 3 Zrotation Xrotation Yrotation
        JOINT head
        {
          OFFSET -0.24384 7.07133 1.2192
          CHANNELS 3 Zrotation Xrotation Yrotation
          JOINT leftEye
          {
            OFFSET 4.14528 8.04674 8.04672
            CHANNELS 3 Zrotation Xrotation Yrotation
            End Site
            {
              OFFSET 1 0 0
            }
          }
          JOINT rightEye
          {
            OFFSET -3.6576 8.04674 8.04672
            CHANNELS 3 Zrotation Xrotation Yrotation
            End Site
            {
              OFFSET 1 0 0
            }
          }
        }
      }
      JOINT rCollar
      {
        OFFSET -2.68224 19.2634 -4.8768
        CHANNELS 3 Zrotation Xrotation Yrotation
        JOINT rShldr
        {
          OFFSET -8.77824 -1.95073 1.46304
          CHANNELS 3 Zrotation Xrotation Yrotation
          JOINT rForeArm
          {
            OFFSET -28.1742 -1.7115 0.48768
            CHANNELS 3 Zrotation Xrotation Yrotation
            JOINT rHand
            {
              OFFSET -22.5879 0.773209 7.07136
              CHANNELS 3 Zrotation Xrotation Yrotation
              JOINT rThumb1
              {
                OFFSET -1.2192 -0.487915 3.41376
                CHANNELS 3 Zrotation Xrotation Yrotation
                JOINT rThumb2
                {
                  OFFSET -3.37035 -0.52449 3.41376
                  CHANNELS 3 Zrotation Xrotation Yrotation
                  End Site
                  {
                    OFFSET -1.78271 -1.18214 1.43049
                  }
                }
              }
              JOINT rIndex1
              {
                OFFSET -7.75947 0.938293 5.60832
                CHANNELS 3 Zrotation Xrotation Yrotation
                JOINT rIndex2
                {
                  OFFSET -2.54057 -0.884171 1.56538
                  CHANNELS 3 Zrotation Xrotation Yrotation
                  End Site
                  {
                    OFFSET -1.62519 -0.234802 1.16502
                  }
                }
              }
              JOINT rMid1
              {
                OFFSET -8.24714 1.18213 3.41376
                CHANNELS 3 Zrotation Xrotation Yrotation
                JOINT rMid2
                {
                  OFFSET -3.10165 -0.590103 1.0647
                  CHANNELS 3 Zrotation Xrotation Yrotation
                  End Site
                  {
                    OFFSET -2.48547 -0.328903 0.83742
                  }
                }
              }
              JOINT rRing1
              {
                OFFSET -8.82822 0.546677 1.51678
                CHANNELS 3 Zrotation Xrotation Yrotation
                JOINT rRing2
                {
                  OFFSET -2.60934 -0.819778 -0.0198488
                  CHANNELS 3 Zrotation Xrotation Yrotation
                  End Site
                  {
                    OFFSET -2.33842 -0.294052 0.168128
                  }
                }
              }
              JOINT rPinky1
              {
                OFFSET -8.27202 -0.0477905 -0.4584
                CHANNELS 3 Zrotation Xrotation Yrotation
                JOINT rPinky2
                {
                  OFFSET -1.82734 -0.647385 -0.700984
                  CHANNELS 3 Zrotation Xrotation Yrotation
                  End Site
                  {
                    OFFSET -1.69225 -0.51767 -0.607171
                  }
                }
              }
            }
          }
        }
      }
      JOINT lCollar
      {
        OFFSET 2.68224 19.2634 -4.8768
        CHANNELS 3 Zrotation Xrotation Yrotation
        JOINT lShldr
        {
          OFFSET 8.77824 -1.95073 1.46304
          CHANNELS 3 Zrotation Xrotation Yrotation
          JOINT lForeArm
          {
            OFFSET 28.1742 -1.7115 0.48768
            CHANNELS 3 Zrotation Xrotation Yrotation
            JOINT lHand
            {
              OFFSET 22.5879 0.773209 7.07136
              CHANNELS 3 Zrotation Xrotation Yrotation
              JOINT lThumb1
              {
                OFFSET 1.2192 -0.487915 3.41376
                CHANNELS 3 Zrotation Xrotation Yrotation
                JOINT lThumb2
                {
                  OFFSET 3.37035 -0.52449 3.41376
                  CHANNELS 3 Zrotation Xrotation Yrotation
                  End Site
                  {
                    OFFSET 1.78271 -1.18214 1.43049
                  }
                }
              }
              JOINT lIndex1
              {
                OFFSET 7.75947 0.938293 5.60832
                CHANNELS 3 Zrotation Xrotation Yrotation
                JOINT lIndex2
                {
                  OFFSET 2.54057 -0.884171 1.56538
                  CHANNELS 3 Zrotation Xrotation Yrotation
                  End Site
                  {
                    OFFSET 1.62519 -0.234802 1.16502
                  }
                }
              }
              JOINT lMid1
              {
                OFFSET 8.24714 1.18213 3.41376
                CHANNELS 3 Zrotation Xrotation Yrotation
                JOINT lMid2
                {
                  OFFSET 3.10165 -0.590103 1.0647
                  CHANNELS 3 Zrotation Xrotation Yrotation
                  End Site
                  {
                    OFFSET 2.48547 -0.328903 0.83742
                  }
                }
              }
              JOINT lRing1
              {
                OFFSET 8.82822 0.546677 1.51678
                CHANNELS 3 Zrotation Xrotation Yrotation
                JOINT lRing2
                {
                  OFFSET 2.60934 -0.819778 -0.0198488
                  CHANNELS 3 Zrotation Xrotation Yrotation
                  End Site
                  {
                    OFFSET 2.33842 -0.294052 0.168128
                  }
                }
              }
              JOINT lPinky1
              {
                OFFSET 8.27202 -0.0477905 -0.4584
                CHANNELS 3 Zrotation Xrotation Yrotation
                JOINT lPinky2
                {
                  OFFSET 1.82734 -0.647385 -0.700984
                  CHANNELS 3 Zrotation Xrotation Yrotation
                  End Site
                  {
                    OFFSET 1.69225 -0.51767 -0.607171
                  }
                }
              }
            }
          }
        }
      }
    }
  }
  JOINT rButtock
  {
    OFFSET -8.77824 4.35084 1.2192
    CHANNELS 3 Zrotation Xrotation Yrotation
    JOINT rThigh
    {
      OFFSET 0 -1.70687 -2.19456
      CHANNELS 3 Zrotation Xrotation Yrotation
      JOINT rShin
      {
        OFFSET 0 -36.8199 0.73152
        CHANNELS 3 Zrotation Xrotation Yrotation
        JOINT rFoot
        {
          OFFSET 0.73152 -45.1104 -5.12064
          CHANNELS 3 Zrotation Xrotation Yrotation
          End Site
          {
            OFFSET -1.1221 -3.69964 12.103
          }
        }
      }
    }
  }
  JOINT lButtock
  {
    OFFSET 8.77824 4.35084 1.2192
    CHANNELS 3 Zrotation Xrotation Yrotation
    JOINT lThigh
    {
      OFFSET 0 -1.70687 -2.19456
      CHANNELS 3 Zrotation Xrotation Yrotation
      JOINT lShin
      {
        OFFSET 0 -36.8199 0.73152
        CHANNELS 3 Zrotation Xrotation Yrotation
        JOINT lFoot
        {
          OFFSET -0.73152 -45.1104 -5.12064
          CHANNELS 3 Zrotation Xrotation Yrotation
          End Site
          {
            OFFSET 1.1221 -3.69964 12.103
          }
        }
      }
    }
  }
}
MOTION
Frames:	7
Frame Time:	0.00833333
-3.64189 85.1968 -59.0771 0.0 0.0 0.0 0.583967 -0.00303823 0.0166886 0.16117 -0.0046852 0.0279253 1.39345e-14 -1.59028e-15 4.84977e-23 4.21051e-14 -6.36111e-15 4.65902e-18 -0.0 0.0 0.0 -0.0 0.0 0.0 7.0558e-15 6.21202e-18 2.48481e-16 1.48303e-13 3.54085e-16 1.19271e-15 2.53858e-12 -7.48225e-13 -2.54444e-14 2.89836e-11 7.96928e-13 3.18055e-14 6.8381e-11 1.02494e-13 2.8625e-14 1.1809e-10 1.78111e-13 6.20208e-14 6.83863e-11 1.04163e-13 1.90833e-14 7.73091 5.47488 0.417314 6.83811e-11 1.03169e-13 3.18055e-14 2.90554 0.965183 0.102902 6.83921e-11 1.02573e-13 3.81667e-14 10.2786 0.731801 0.0259123 6.83783e-11 1.02573e-13 5.08889e-14 2.22167 -0.733487 -0.20892 6.95898e-15 6.98852e-18 -2.48481e-16 1.44785e-13 -1.05604e-16 0.0 2.52566e-12 7.66712e-13 -2.54444e-14 2.89865e-11 -7.18383e-13 6.36111e-14 6.83636e-11 1.10051e-13 4.45278e-14 1.18065e-10 1.90833e-13 6.83819e-14 6.83585e-11 1.12115e-13 6.36111e-14 -7.73091 5.47488 -0.417314 6.83641e-11 1.10325e-13 4.13472e-14 -2.90554 0.965183 -0.102902 6.83601e-11 1.10127e-13 3.97569e-14 -10.2786 0.731801 -0.0259123 6.83678e-11 1.10127e-13 2.22639e-14 -2.22167 -0.733487 0.20892 -2.03217e-16 0.0 -3.88251e-19 0.940021 -4.56521 -0.0787577 -0.00191322 2.71742 -0.00754407 -0.501072 1.84803 0.0947641 2.03217e-16 0.0 3.88251e-19 -0.0507289 -2.31868 0.0217179 0.00815991 -1.35176 0.0697824 0.492749 3.67058 -0.1308
-3.63696 84.6016 -59.6539 1.1895 -4.6958 1.1542 -0.391558 1.0499 0.160116 0.225443 -0.615196 0.0639901 -2.42786 2.15203 -1.60205 3.67429 -3.65353 -2.42447 -0.0 0.0 0.0 -0.0 0.0 0.0 1.32821e-14 4.01743e-15 -4.13309e-14 21.1329 5.65886 0.273941 -3.63537 -1.55052 5.7833 0.0612409 5.49408 0.759378 2.9247e-10 -2.23157e-10 -2.98656e-11 5.04534e-10 -3.83357e-10 -5.56506e-11 2.92479e-10 -2.23157e-10 -2.98695e-11 7.73091 5.47488 0.417314 2.92475e-10 -2.23158e-10 -2.98563e-11 2.90554 0.965183 0.102902 2.92479e-10 -2.23153e-10 -2.98566e-11 10.2786 0.731801 0.0259123 2.92468e-10 -2.23154e-10 -2.98436e-11 2.22167 -0.733487 -0.20892 1.32029e-14 4.0179e-15 -4.17327e-14 -21.8459 2.09158 0.494011 3.04299 -1.20999 -4.92392 -0.00595143 1.71137 -0.24013 2.14587e-10 4.39381e-10 -6.56071e-11 3.70586e-10 7.60185e-10 -1.14611e-10 2.14583e-10 4.39385e-10 -6.55924e-11 -7.73091 5.47488 -0.417314 2.14588e-10 4.39382e-10 -6.56121e-11 -2.90554 0.965183 -0.102902 2.14584e-10 4.39382e-10 -6.56119e-11 -10.2786 0.731801 -0.0259123 2.1459e-10 4.39382e-10 -6.56247e-11 -2.22167 -0.733487 0.20892 -2.03217e-16 0.0 -3.88251e-19 0.594155 -5.13002 6.10233 0.00551898 6.57774 0.0732691 -0.858026 -1.37284 -4.66558 2.03217e-16 0.0 3.88251e-19 -0.0845155 -2.12879 -2.21441 -0.00117409 1.64898 -0.00221346 0.783976 0.425562 5.01645
-3.61485 84.602 -59.6588 1.2601 -4.6033 1.1852 -1.42831 2.15719 0.313558 0.293237 -1.26142 0.102646 -4.86317 4.43106 -3.31229 7.21991 -7.50177 -5.03907 -0.0 0.0 0.0 -0.0 0.0 0.0 2.04597e-14 8.84852e-15 -9.07266e-14 43.4154 11.6361 0.569161 -7.1382 -3.13581 11.9077 -0.0352211 11.3012 1.58605 5.57245e-10 -4.83614e-10 -6.20975e-11 9.61192e-10 -8.30799e-10 -1.16077e-10 5.5726e-10 -4.83616e-10 -6.20954e-11 7.73091 5.47488 0.417314 5.57256e-10 -4.83618e-10 -6.20814e-11 2.90554 0.965183 0.102902 5.57252e-10 -4.83607e-10 -6.2089e-11 10.2786 0.731801 0.0259123 5.57246e-10 -4.83608e-10 -6.20757e-11 2.22167 -0.733487 -0.20892 2.03981e-14 8.84868e-15 -9.10278e-14 -44.9791 4.30228 1.0247 6.03413 -2.45905 -10.1354 0.00338038 3.51974 -0.494598 3.89509e-10 9.62948e-10 -1.42982e-10 6.72658e-10 1.66603e-09 -2.49797e-10 3.89506e-10 9.62953e-10 -1.42972e-10 -7.73091 5.47488 -0.417314 3.8951e-10 9.6295e-10 -1.42989e-10 -2.90554 0.965183 -0.102902 3.89506e-10 9.6295e-10 -1.42987e-10 -10.2786 0.731801 -0.0259123 3.8951e-10 9.6295e-10 -1.42995e-10 -2.22167 -0.733487 0.20892 -2.03217e-16 0.0 -3.88251e-19 0.36037 -5.64358 12.6489 0.00134783 10.6559 0.160398 -1.81568 -4.71787 -9.72621 2.03217e-16 0.0 3.88251e-19 -0.104616 -1.92041 -4.58015 -0.00289584 4.81909 -0.0786137 1.72403 -2.95492 10.4759
-3.61179 84.5998 -59.6602 1.2644 -4.5708 1.1965 -2.35844 3.1557 0.447568 0.356296 -1.83621 0.136179 -6.92106 6.43583 -4.83328 10.0836 -10.8814 -7.39226 -0.0 0.0 0.0 -0.0 0.0 0.0 2.57347e-14 1.20399e-14 -1.2449e-13 63.2301 16.975 0.855075 -9.98063 -4.46235 17.3979 -0.268955 16.4704 2.36476 7.40647e-10 -6.69675e-10 -8.96539e-11 1.27742e-09 -1.15043e-09 -1.67076e-10 7.40665e-10 -6.69679e-10 -8.96467e-11 7.73091 5.47488 0.417314 7.40662e-10 -6.69681e-10 -8.96326e-11 2.90554 0.965183 0.102902 7.40652e-10 -6.69666e-10 -8.96462e-11 10.2786 0.731801 0.0259123 7.40649e-10 -6.69666e-10 -8.96327e-11 2.22167 -0.733487 -0.20892 2.56909e-14 1.20397e-14 -1.24701e-13 -65.6466 6.27287 1.48997 8.51173 -3.5229 -14.7971 0.0253269 5.13375 -0.722969 5.07035e-10 1.31792e-09 -1.9691e-10 8.75629e-10 2.28017e-09 -3.43968e-10 5.07032e-10 1.31793e-09 -1.96904e-10 -7.73091 5.47488 -0.417314 5.07036e-10 1.31793e-09 -1.96919e-10 -2.90554 0.965183 -0.102902 5.07032e-10 1.31793e-09 -1.96915e-10 -10.2786 0.731801 -0.0259123 5.07034e-10 1.31793e-09 -1.96919e-10 -2.22167 -0.733487 0.20892 -2.03217e-16 0.0 -3.88251e-19 0.256552 -6.02148 18.4961 -0.0132159 14.2983 0.240894 -3.17123 -7.58823 -14.3101 2.03217e-16 0.0 3.88251e-19 -0.107572 -1.74186 -6.68516 0.0028926 7.65042 -0.147476 3.10079 -5.84377 15.392
-3.63275 84.5953 -59.6903 1.1958 -4.5254 1.2658 -3.01071 3.88234 0.532429 0.405831 -2.23242 0.156847 -8.29769 7.77494 -5.8544 11.9244 -13.1679 -8.97555 -0.0 0.0 0.0 -0.0 0.0 0.0 2.62533e-14 1.11319e-14 -1.19171e-13 76.9928 20.7196 1.08725 -11.8174 -5.32145 21.257 -0.520166 20.0558 2.94101 7.20612e-10 -6.69745e-10 -1.05521e-10 1.24258e-09 -1.15052e-09 -1.94508e-10 7.20632e-10 -6.69751e-10 -1.05512e-10 7.73091 5.47488 0.417314 7.20628e-10 -6.69753e-10 -1.05499e-10 2.90554 0.965183 0.102902 7.20616e-10 -6.69735e-10 -1.05515e-10 10.2786 0.731801 0.0259123 7.20615e-10 -6.69737e-10 -1.05502e-10 2.22167 -0.733487 -0.20892 2.62276e-14 1.11314e-14 -1.19321e-13 -80.0705 7.64507 1.78388 10.1377 -4.22554 -18.06 0.0483389 6.26221 -0.883652 4.8107e-10 1.25142e-09 -1.9222e-10 8.3085e-10 2.16508e-09 -3.35604e-10 4.81069e-10 1.25143e-09 -1.92217e-10 -7.73091 5.47488 -0.417314 4.81071e-10 1.25142e-09 -1.9223e-10 -2.90554 0.965183 -0.102902 4.81067e-10 1.25143e-09 -1.92225e-10 -10.2786 0.731801 -0.0259123 4.81069e-10 1.25143e-09 -1.92226e-10 -2.22167 -0.733487 0.20892 -2.03217e-16 0.0 -3.88251e-19 0.240138 -6.24679 22.5731 -0.0298272 16.8512 0.299474 -4.3968 -9.49681 -17.5712 2.03217e-16 0.0 3.88251e-19 -0.101008 -1.6419 -8.13942 0.0113804 9.63487 -0.196018 4.34534 -7.7382 18.8427
-3.63625 84.5906 -59.7228 1.1944 -4.4259 1.3167 -3.26973 4.2341 0.54622 0.438334 -2.37592 0.158881 -8.84082 8.17361 -6.15482 12.6426 -13.9668 -9.39292 -0.0 0.0 0.0 -0.0 0.0 0.0 1.92266e-14 2.54687e-16 -4.37109e-14 82.3347 22.2406 1.22632 -12.5217 -5.65128 22.8084 -0.637665 21.4259 3.17135 3.27863e-10 -3.50523e-10 -8.11608e-11 5.64869e-10 -6.02507e-10 -1.46298e-10 3.27883e-10 -3.50529e-10 -8.11531e-11 7.73091 5.47488 0.417314 3.27878e-10 -3.50532e-10 -8.11445e-11 2.90554 0.965183 0.102902 3.2787e-10 -3.50517e-10 -8.11572e-11 10.2786 0.731801 0.0259123 3.27867e-10 -3.50518e-10 -8.11467e-11 2.22167 -0.733487 -0.20892 1.9224e-14 2.53455e-16 -4.38343e-14 -85.7208 8.17112 1.82524 10.7555 -4.49209 -19.3471 0.0592246 6.71194 -0.94797 2.06312e-10 4.2635e-10 -1.18955e-10 3.56321e-10 7.37448e-10 -2.06597e-10 2.06312e-10 4.26356e-10 -1.18954e-10 -7.73091 5.47488 -0.417314 2.06314e-10 4.26354e-10 -1.18965e-10 -2.90554 0.965183 -0.102902 2.0631e-10 4.26355e-10 -1.1896e-10 -10.2786 0.731801 -0.0259123 2.06313e-10 4.26355e-10 -1.18963e-10 -2.22167 -0.733487 0.20892 -2.03217e-16 0.0 -3.88251e-19 0.251677 -6.35679 24.1632 -0.0382264 17.8818 0.323858 -4.94652 -10.2246 -18.883 2.03217e-16 0.0 3.88251e-19 -0.0956826 -1.64381 -8.67988 0.0164173 10.4249 -0.214614 4.87026 -8.41388 20.1553
-3.63409 84.5882 -59.7435 1.2275 -4.3731 1.3132 -3.24664 4.31783 0.509216 0.458413 -2.33904 0.147625 -8.81125 7.9049 -5.93616 12.6221 -13.7165 -8.95724 -0.0 0.0 0.0 -0.0 0.0 0.0 6.85265e-15 -1.75421e-14 8.11166e-14 81.6789 22.1736 1.29064 -12.4786 -5.63912 22.7039 -0.620456 21.2164 3.1361 -3.26924e-10 1.93959e-10 -2.92025e-11 -5.6483e-10 3.32207e-10 -4.60884e-11 -3.26907e-10 1.93954e-10 -2.91997e-11 7.73091 5.47488 0.417314 -3.26914e-10 1.93951e-10 -2.91971e-11 2.90554 0.965183 0.102902 -3.26914e-10 1.9396e-10 -2.92026e-11 10.2786 0.731801 0.0259123 -3.26919e-10 1.93958e-10 -2.91955e-11 2.22167 -0.733487 -0.20892 6.87637e-15 -1.75441e-14 8.09923e-14 -85.0973 8.09349 1.68517 10.6952 -4.46755 -19.2188 0.0582261 6.6769 -0.942944 -2.43875e-10 -9.32534e-10 3.93297e-12 -4.21225e-10 -1.61382e-09 9.67565e-12 -2.43873e-10 -9.32531e-10 3.93453e-12 -7.73091 5.47488 -0.417314 -2.43872e-10 -9.3253e-10 3.92401e-12 -2.90554 0.965183 -0.102902 -2.43875e-10 -9.32529e-10 3.92794e-12 -10.2786 0.731801 -0.0259123 -2.43871e-10 -9.32528e-10 3.92102e-12 -2.22167 -0.733487 0.20892 -2.03217e-16 0.0 -3.88251e-19 0.261549 -6.41125 23.9751 -0.0379728 17.825 0.322738 -4.89931 -10.1582 -18.7757 2.03217e-16 0.0 3.88251e-19 -0.0934998 -1.71915 -8.56785 0.0172608 10.3622 -0.211441 4.76307 -8.27148 19.916
